<svg xmlns="http://www.w3.org/2000/svg" viewBox="0 0 512 512">
  <defs>
    <filter id="shadow" x="-20%" y="-20%" width="140%" height="140%">
      <feGaussianBlur in="SourceAlpha" stdDeviation="10"/>
      <feOffset dx="0" dy="5" result="offsetblur"/>
      <feComponentTransfer>
        <feFuncA type="linear" slope="0.2"/>
      </feComponentTransfer>
      <feMerge>
        <feMergeNode/>
        <feMergeNode in="SourceGraphic"/>
      </feMerge>
    </filter>
  </defs>
  <!-- Main Book Shape (Blue) -->
  <path fill="#4285F4" d="M416 480c0-53-43-96-96-96H128c-53 0-96 43-96 96v-32c0-53 43-96 96-96h192c53 0 96 43 96 96v32z"/>
  <path fill="#4285F4" d="M416 32H128c-53 0-96 43-96 96v352h384V32z"/>
  
  <!-- Page Fold / Accent (White/Light Blue) -->
  <path fill="#FFFFFF" fill-opacity="0.2" d="M128 32c-53 0-96 43-96 96v352c0-53 43-96 96-96h192c53 0 96 43 96 96V128H128V32z"/>
  
  <!-- "R" or Text lines suggestion (White) -->
  <rect x="112" y="112" width="288" height="32" rx="8" fill="#FFFFFF"/>
  <rect x="112" y="176" width="288" height="32" rx="8" fill="#FFFFFF"/>
  <rect x="112" y="240" width="192" height="32" rx="8" fill="#FFFFFF"/>
  
  <!-- Bookmark / Accent (Red) -->
  <path fill="#EA4335" d="M368 32h-64v128l32-16 32 16V32z"/>
</svg>
